<?xml version="1.0" encoding="iso-8859-1"?>
<!-- Generator: Adobe Illustrator 19.0.0, SVG Export Plug-In . SVG Version: 6.00 Build 0)  -->
<svg version="1.1" id="Layer_1" xmlns="http://www.w3.org/2000/svg" xmlns:xlink="http://www.w3.org/1999/xlink" x="0px" y="0px"
	 viewBox="0 0 512.001 512.001" style="enable-background:new 0 0 512.001 512.001;" xml:space="preserve">
<g>
	<g>
		<g>
			<path d="M502.176,381.083l-6.604-6.605c-6.329-6.33-14.743-9.814-23.693-9.814c-7.316,0-14.272,2.331-20.026,6.639
				l-15.732-15.732c10.74-19.403,18.29-40.508,22.31-62.691c7.307-40.327,2.57-81.437-13.696-118.884
				c-10.286-23.679-24.836-45.02-43.245-63.432c-1.433-1.432-2.974-2.922-4.712-4.555c-0.344-0.325-0.695-0.643-1.044-0.962
				l-0.467-0.427c-1.106-1.018-2.215-2.028-3.336-3.014c-0.518-0.458-1.042-0.909-1.564-1.359l-0.23-0.198
				c-1.06-0.913-2.125-1.813-3.201-2.704c-0.613-0.507-1.228-1.012-1.846-1.511c-1.119-0.904-2.247-1.792-3.371-2.659l-0.447-0.348
				c-0.422-0.329-0.845-0.657-1.263-0.973c-1.386-1.052-2.785-2.076-4.198-3.091l-0.344-0.251c-0.199-0.146-0.398-0.292-0.608-0.442
				c-1.705-1.209-3.481-2.426-5.28-3.621c-0.262-0.173-0.527-0.343-0.793-0.513l-0.461-0.296c-1.356-0.884-2.715-1.758-4.081-2.603
				c-0.468-0.29-0.938-0.573-1.409-0.858l-0.44-0.265c-1.199-0.726-2.406-1.442-3.611-2.138c-0.663-0.383-1.329-0.761-1.994-1.136
				c-1.208-0.679-2.421-1.342-3.635-1.993l-0.291-0.157c-0.547-0.294-1.095-0.588-1.642-0.874c-1.355-0.708-2.72-1.394-4.093-2.073
				l-0.559-0.279c-0.31-0.156-0.62-0.311-0.946-0.47c-2.003-0.968-3.864-1.834-5.675-2.643l-0.561-0.243
				c-1.704-0.754-3.441-1.495-5.149-2.194c-0.438-0.181-0.877-0.354-1.317-0.528l-0.529-0.209c-1.317-0.525-2.635-1.042-3.963-1.54
				c-0.701-0.263-1.405-0.519-2.102-0.772c-1.261-0.458-2.525-0.902-3.795-1.336c-0.715-0.244-1.429-0.486-2.147-0.721
				c-1.324-0.434-2.65-0.85-3.99-1.261l-0.621-0.192c-0.434-0.135-0.87-0.27-1.298-0.395c-1.711-0.506-3.427-0.986-5.149-1.446
				l-0.142-0.041c-0.19-0.055-0.379-0.109-0.569-0.158c-0.053-0.014-0.107-0.026-0.161-0.04
				c-10.806-2.837-21.954-4.807-33.142-5.854c-0.111-0.015-0.222-0.027-0.335-0.037c-0.479-0.044-0.96-0.079-1.438-0.115
				l-1.278-0.101c-0.818-0.068-1.634-0.135-2.45-0.191c-0.598-0.04-1.197-0.07-1.795-0.103l-1.53-0.082
				c-0.727-0.04-1.455-0.079-2.194-0.11c-0.651-0.025-1.3-0.042-1.95-0.058l-1.477-0.039c-0.693-0.021-1.384-0.04-2.094-0.05
				c-0.681-0.009-1.363-0.006-2.042-0.006l-0.707,0.001l-0.707-0.001c-0.682-0.001-1.362-0.002-2.058,0.006
				c-0.692,0.01-1.383,0.029-2.076,0.05l-1.476,0.039c-0.651,0.016-1.3,0.032-1.964,0.058c-0.728,0.03-1.456,0.069-2.183,0.11
				l-1.531,0.082c-0.599,0.031-1.197,0.063-1.79,0.103c-0.82,0.055-1.637,0.122-2.454,0.191l-1.278,0.101
				c-0.479,0.036-0.96,0.07-1.438,0.115c-0.09,0.009-0.193,0.021-0.296,0.034c-11.199,1.046-22.356,3.015-33.17,5.855
				c-0.057,0.014-0.114,0.027-0.171,0.042c-0.191,0.05-0.38,0.104-0.569,0.158l-0.144,0.041c-1.72,0.46-3.436,0.94-5.14,1.444
				c-0.435,0.128-0.871,0.262-1.305,0.398l-0.631,0.195c-1.329,0.407-2.656,0.823-3.981,1.258c-0.716,0.235-1.43,0.478-2.148,0.722
				c-1.267,0.432-2.531,0.876-3.786,1.332c-0.704,0.255-1.408,0.511-2.111,0.776c-1.327,0.497-2.644,1.014-3.955,1.537l-0.535,0.211
				c-0.44,0.173-0.88,0.347-1.304,0.522c-1.721,0.705-3.457,1.446-5.193,2.214l-0.517,0.223c-1.825,0.815-3.685,1.681-5.704,2.656
				c-0.311,0.152-0.621,0.307-0.93,0.463l-0.564,0.282c-1.368,0.677-2.733,1.363-4.085,2.069c-0.55,0.288-1.098,0.582-1.645,0.876
				l-0.287,0.155c-0.799,0.429-1.593,0.87-2.388,1.308L140.69,60.137c4.308-5.753,6.639-12.71,6.639-20.025
				c0.001-8.95-3.486-17.364-9.815-23.695l-6.604-6.604C124.581,3.487,116.166,0,107.215,0c-8.95,0-17.363,3.486-23.692,9.814
				L9.806,83.531c-13.062,13.063-13.062,34.32,0.002,47.387l6.604,6.603c6.329,6.331,14.744,9.818,23.695,9.818
				c7.316,0,14.273-2.332,20.025-6.64L75.934,156.5c-3.151,5.696-6.039,11.55-8.621,17.496
				c-10.479,24.124-16.172,49.748-16.922,76.157c-0.127,4.485,3.405,8.224,7.89,8.351c4.453,0.143,8.224-3.406,8.351-7.89
				c0.691-24.331,5.933-47.93,15.583-70.147c3.145-7.243,6.782-14.334,10.824-21.139c0.006-0.01,0.013-0.018,0.019-0.028
				c0.946-1.591,1.919-3.166,2.913-4.73c0.155-0.244,0.312-0.485,0.468-0.729c0.868-1.351,1.753-2.692,2.655-4.022
				c0.174-0.257,0.347-0.515,0.522-0.77c2.087-3.045,4.265-6.03,6.531-8.953c0.179-0.23,0.359-0.458,0.537-0.687
				c0.991-1.266,2-2.521,3.023-3.763c0.174-0.211,0.346-0.426,0.521-0.636c1.148-1.38,2.316-2.745,3.504-4.094
				c0.227-0.258,0.46-0.512,0.69-0.77c0.964-1.082,1.941-2.154,2.93-3.216c0.335-0.36,0.669-0.719,1.007-1.077
				c1.175-1.242,2.362-2.474,3.572-3.685c0.039-0.039,0.077-0.079,0.115-0.118c0.015-0.015,0.031-0.03,0.045-0.046
				c1.252-1.251,2.525-2.478,3.809-3.692c0.166-0.157,0.326-0.31,0.496-0.47c0.216-0.204,0.434-0.402,0.652-0.6
				c0.385-0.357,0.778-0.707,1.165-1.062c0.876-0.804,1.754-1.605,2.642-2.389c0.253-0.223,0.509-0.443,0.765-0.663
				c0.577-0.504,1.162-0.998,1.745-1.494c0.695-0.592,1.391-1.186,2.092-1.766c0.222-0.183,0.445-0.365,0.668-0.548
				c0.709-0.581,1.427-1.152,2.145-1.723c0.667-0.529,1.331-1.06,2.009-1.584l0.289-0.224c0.88-0.678,1.769-1.343,2.66-2.005
				c0.689-0.51,1.376-1.022,2.068-1.522c2.591-1.871,5.229-3.671,7.908-5.406c0.721-0.468,1.447-0.928,2.174-1.386
				c0.969-0.609,1.943-1.21,2.923-1.801c1.026-0.62,2.054-1.232,3.095-1.833c0.607-0.35,1.214-0.696,1.825-1.039
				c1.112-0.626,2.231-1.237,3.357-1.84l0.296-0.158c0.491-0.263,0.981-0.528,1.477-0.786c1.247-0.652,2.502-1.282,3.755-1.902
				l0.661-0.33c0.246-0.123,0.492-0.247,0.725-0.36c1.853-0.896,3.568-1.695,5.249-2.445l0.494-0.212
				c1.568-0.695,3.167-1.377,4.764-2.032c0.361-0.148,0.722-0.291,1.085-0.433l0.591-0.234c1.211-0.483,2.423-0.96,3.639-1.416
				c0.649-0.243,1.297-0.479,1.953-0.717c1.161-0.422,2.326-0.831,3.491-1.228c0.655-0.224,1.311-0.446,1.966-0.662
				c1.224-0.401,2.452-0.785,3.671-1.159l0.687-0.211c0.361-0.113,0.722-0.224,1.093-0.334c1.574-0.466,3.152-0.908,4.731-1.329
				c0.161-0.043,0.324-0.09,0.485-0.136l0.069-0.021c0.037-0.01,0.074-0.019,0.113-0.028c10.069-2.653,20.464-4.487,30.9-5.453
				c0.08-0.008,0.171-0.018,0.265-0.029c0.321-0.027,0.642-0.051,0.963-0.075l1.428-0.113c0.729-0.061,1.458-0.121,2.192-0.17
				c0.516-0.035,1.031-0.062,1.548-0.088l1.586-0.086c0.65-0.036,1.3-0.071,1.937-0.099c0.569-0.023,1.139-0.036,1.709-0.05
				l1.553-0.042c0.61-0.018,1.221-0.036,1.814-0.044c0.605-0.008,1.211-0.005,1.815-0.004l0.74,0.001l0.74-0.001
				c0.604-0.001,1.21-0.003,1.798,0.004c0.611,0.009,1.221,0.026,1.832,0.044l1.553,0.042c0.57,0.014,1.141,0.027,1.696,0.05
				c0.65,0.027,1.3,0.063,1.95,0.099l1.586,0.086c0.517,0.026,1.032,0.053,1.552,0.088c0.731,0.049,1.46,0.11,2.189,0.17
				l1.428,0.113c0.311,0.023,0.623,0.047,0.934,0.073c0.099,0.013,0.196,0.023,0.294,0.031c10.435,0.965,20.831,2.8,30.9,5.453
				c0.035,0.009,0.07,0.018,0.107,0.026l0.075,0.023c0.161,0.047,0.324,0.093,0.482,0.135c1.582,0.422,3.161,0.864,4.742,1.331
				c0.363,0.107,0.725,0.219,1.085,0.331l0.676,0.208c1.229,0.378,2.458,0.761,3.679,1.162c0.656,0.216,1.312,0.438,1.965,0.661
				c1.168,0.399,2.332,0.807,3.5,1.232c0.65,0.236,1.298,0.473,1.944,0.714c1.219,0.457,2.431,0.933,3.648,1.418l0.585,0.232
				c0.363,0.143,0.725,0.286,1.098,0.439c1.585,0.651,3.182,1.331,4.715,2.01l0.538,0.232c1.672,0.746,3.387,1.546,5.225,2.434
				c0.247,0.12,0.493,0.244,0.74,0.367l0.654,0.328c1.26,0.622,2.514,1.252,3.765,1.906c0.493,0.257,0.983,0.521,1.474,0.785
				l0.3,0.161c1.121,0.602,2.239,1.212,3.353,1.839c0.61,0.341,1.217,0.688,1.828,1.041c1.116,0.644,2.225,1.303,3.331,1.972
				l0.465,0.281c0.411,0.247,0.82,0.494,1.235,0.75c1.262,0.783,2.515,1.587,3.759,2.398l0.596,0.385
				c0.187,0.119,0.376,0.239,0.56,0.361c1.658,1.102,3.295,2.224,4.853,3.327l0.886,0.648c1.297,0.93,2.584,1.873,3.868,2.847
				c0.364,0.275,0.725,0.556,1.084,0.836l0.487,0.379c1.041,0.804,2.076,1.617,3.104,2.448c0.571,0.463,1.139,0.929,1.704,1.396
				c0.991,0.819,1.973,1.651,2.947,2.489l0.229,0.197c0.477,0.411,0.954,0.822,1.429,1.24c1.031,0.91,2.053,1.838,3.076,2.782
				l0.526,0.48c0.286,0.261,0.572,0.521,0.858,0.79c1.614,1.516,3.037,2.892,4.35,4.206c16.961,16.96,30.363,36.615,39.833,58.415
				c24.609,56.654,20.096,119.753-10.059,171.079c-0.31,0.359-0.598,0.735-0.845,1.149c-8.037,13.516-17.792,26.048-28.993,37.247
				c-11.205,11.206-23.737,20.961-37.248,28.994c-0.353,0.21-0.68,0.453-0.993,0.709c-28.712,16.854-61.499,25.852-95.674,25.852
				c-50.61,0-98.19-19.707-133.976-55.491c-30.728-30.729-50.083-71.412-54.502-114.557c-0.458-4.461-4.454-7.712-8.909-7.253
				c-4.464,0.457-7.711,4.445-7.254,8.91c4.798,46.851,25.814,91.026,59.176,124.389c38.855,38.853,90.515,60.25,145.465,60.25
				c35.401,0,69.429-8.894,99.555-25.601l15.717,15.717c-4.309,5.754-6.641,12.711-6.64,20.027c0,8.948,3.488,17.361,9.817,23.691
				l6.605,6.604c6.329,6.33,14.743,9.817,23.693,9.818c0.001,0,0.002,0,0.003,0c8.947,0,17.36-3.486,23.688-9.814l73.717-73.719
				c6.33-6.328,9.814-14.742,9.814-23.692C511.991,395.826,508.505,387.411,502.176,381.083z M40.106,131.091
				c-4.611,0-8.946-1.796-12.206-5.058l-6.604-6.603c-6.729-6.732-6.73-17.681-0.001-24.409l73.717-73.719
				c3.259-3.259,7.594-5.054,12.203-5.054c4.611,0,8.946,1.796,12.207,5.057l6.604,6.603c3.261,3.261,5.056,7.596,5.056,12.206
				c0,2.949-0.734,5.785-2.118,8.299l-12.119-12.12c-1.524-1.523-3.59-2.379-5.745-2.379c-2.154,0-4.22,0.856-5.745,2.379
				l-69.07,69.07c-3.173,3.174-3.173,8.316,0,11.489l12.12,12.119C45.891,130.356,43.056,131.091,40.106,131.091z M53.518,111.107
				l57.581-57.583l6.859,6.86l-57.58,57.581L53.518,111.107z M138.072,87.454c-0.045,0.032-0.091,0.063-0.136,0.095
				c-0.251,0.177-0.51,0.352-0.759,0.529c-0.2,0.143-0.4,0.289-0.598,0.434l-0.35,0.255c-0.25,0.18-0.495,0.368-0.745,0.549
				c-0.917,0.665-1.832,1.336-2.739,2.016c-0.232,0.174-0.47,0.341-0.701,0.516c-0.425,0.322-0.848,0.651-1.271,0.979l-0.061,0.047
				c-1.112,0.857-2.214,1.728-3.31,2.607c-0.148,0.119-0.3,0.234-0.448,0.353c-0.078,0.063-0.155,0.127-0.232,0.19
				c-2.08,1.684-4.127,3.411-6.143,5.176c-0.155,0.134-0.312,0.269-0.466,0.404c-0.115,0.101-0.225,0.206-0.34,0.307
				c-1.139,1.008-2.268,2.03-3.387,3.064l-0.078,0.07c-0.349,0.318-0.7,0.637-1.042,0.96c-0.173,0.162-0.337,0.318-0.506,0.479
				c-0.307,0.289-0.613,0.579-0.919,0.871c-1.173,1.12-2.26,2.179-3.289,3.208c-1.157,1.157-2.297,2.33-3.427,3.515
				c-0.327,0.343-0.648,0.693-0.973,1.04c-0.793,0.843-1.582,1.688-2.36,2.542c-0.389,0.428-0.771,0.861-1.157,1.291
				c-0.711,0.794-1.418,1.59-2.115,2.395c-0.382,0.442-0.76,0.886-1.139,1.33c-0.704,0.825-1.403,1.655-2.094,2.491
				c-0.339,0.411-0.677,0.823-1.013,1.236c-0.743,0.913-1.477,1.834-2.204,2.759c-0.266,0.34-0.534,0.679-0.798,1.02
				c-0.824,1.064-1.637,2.135-2.438,3.212c-0.159,0.214-0.322,0.427-0.48,0.642c-1.109,1.502-2.205,3.013-3.27,4.543
				c-0.77,1.105-1.524,2.229-2.275,3.352c-0.063,0.093-0.128,0.185-0.191,0.278l-12.755-12.755l57.585-57.58l12.756,12.756
				C140.804,85.56,139.425,86.506,138.072,87.454z M458.465,400.893l-57.58,57.581l-6.859-6.859l57.581-57.581L458.465,400.893z
				 M369.862,427.453c11.252-7.505,21.845-16.177,31.626-25.957c9.757-9.757,18.423-20.356,25.939-31.642l12.692,12.691
				l-57.582,57.582L369.862,427.453z M490.687,416.978l-73.718,73.719c-3.26,3.261-7.592,5.056-12.2,5.056c-0.001,0-0.001,0-0.002,0
				c-4.61-0.001-8.945-1.796-12.205-5.058l-6.606-6.605c-3.261-3.261-5.057-7.595-5.057-12.204
				c-0.001-2.949,0.734-5.785,2.119-8.299l12.12,12.12c3.171,3.171,8.315,3.171,11.489,0l69.069-69.07
				c3.173-3.174,3.173-8.316,0-11.488l-12.119-12.122c2.514-1.382,5.351-2.118,8.3-2.118c4.61,0,8.945,1.795,12.204,5.055
				l6.605,6.606c3.26,3.26,5.056,7.595,5.056,12.205C495.744,409.386,493.949,413.719,490.687,416.978z"/>
			<path d="M135.537,376.516c0.004,0.004,0.01,0.009,0.015,0.013c32.18,32.174,74.964,49.893,120.471,49.894
				c0.003,0-0.002,0,0.001,0c45.511,0,88.304-17.727,120.485-49.908c0.069-0.068,0.134-0.14,0.204-0.209
				c0.027-0.027,0.057-0.049,0.084-0.076c0.044-0.044,0.081-0.093,0.125-0.138c31.918-32.135,49.495-74.747,49.495-120.064
				c0-45.513-17.724-88.303-49.906-120.485c-32.185-32.183-74.974-49.906-120.486-49.906c-45.514,0-88.302,17.724-120.484,49.906
				c-32.184,32.185-49.908,74.975-49.908,120.488c0,45.506,17.719,88.29,49.894,120.471
				C135.529,376.506,135.533,376.512,135.537,376.516z M152.922,370.621l17.547-17.547l53.847,53.847
				C197.839,401.412,173.32,389.018,152.922,370.621z M256.023,410.177c-2.021,0-4.035-0.05-6.043-0.127
				c-0.357-0.64-0.802-1.246-1.345-1.789l-66.677-66.676l17.124-17.124l83.458,83.458
				C273.867,409.413,265.004,410.177,256.023,410.177z M192.737,285.768c1.287-6.374,6.929-11,13.415-11
				c0.91,0,1.828,0.092,2.731,0.274c2.204,0.445,4.578,0.67,7.055,0.67c5.136-0.001,10.502-0.952,15.876-2.711l3.266,7.057
				c1.373,2.968,4.31,4.715,7.378,4.715c1.142,0,2.302-0.243,3.407-0.753c4.073-1.884,5.845-6.712,3.961-10.784l-3.299-7.129
				c3.101-1.906,6.132-4.066,9.046-6.471l5.903,5.262c1.549,1.38,3.479,2.059,5.402,2.059c2.236,0,4.463-0.919,6.068-2.719
				c2.985-3.349,2.689-8.484-0.659-11.469l-5.208-4.641c2.462-2.98,4.589-5.976,6.412-8.95c0.505,0.255,1.042,0.463,1.611,0.612
				l13.608,3.557c0.689,0.181,1.379,0.266,2.059,0.266c3.606,0,6.9-2.419,7.854-6.071c1.135-4.34-1.464-8.779-5.805-9.913
				l-12.501-3.268c2.703-8.58,3.036-16.319,1.922-22.079c-1.434-7.42,3.436-14.624,10.854-16.06c0.87-0.168,1.753-0.252,2.627-0.252
				c6.538,0,12.188,4.673,13.432,11.109c4.856,25.116-6.095,54.575-28.581,76.878c-18.698,18.548-42.221,29.184-64.537,29.184
				c-4.311,0-8.541-0.413-12.57-1.226c-3.59-0.725-6.683-2.804-8.708-5.853S192.013,289.356,192.737,285.768z M177.483,279.883
				l-15.667-15.667c9.598-0.266,19.312-2.133,28.812-5.436l2.674,2.674C185.815,265.042,179.95,271.662,177.483,279.883z
				 M265.032,218.727c-2.027,6.707-6.086,14.316-12.674,21.575l-13.52-13.519c5.682-6.088,10.653-12.606,14.854-19.396
				L265.032,218.727z M261.583,192.298c3.78-8.772,6.322-17.783,7.519-26.731l9.513,9.513c-7.104,4.949-11.816,12.822-12.716,21.534
				L261.583,192.298z M240.054,250.977c-9.134,6.115-17.971,8.487-24.118,8.487c-0.597,0-1.163-0.032-1.719-0.075l-7.624-7.624
				c7.109-3.806,13.974-8.431,20.439-13.81L240.054,250.977z M342.291,279.254l-4.898-1.28c2.279-7.971,2.514-15.14,1.466-20.557
				c-1.434-7.42,3.436-14.624,10.854-16.06c0.87-0.168,1.753-0.252,2.627-0.252c6.539,0,12.189,4.672,13.433,11.109
				c4.856,25.116-6.096,54.576-28.582,76.88c-18.697,18.547-42.22,29.183-64.537,29.183c-4.311,0-8.54-0.413-12.57-1.226
				c-7.41-1.496-12.22-8.739-10.725-16.147c1.287-6.374,6.929-11,13.415-11c0.91,0,1.829,0.092,2.731,0.274
				c2.204,0.445,4.578,0.67,7.055,0.67c4.802,0,9.804-0.823,14.825-2.366l1.482,3.202c1.373,2.968,4.309,4.715,7.377,4.715
				c1.142,0,2.302-0.243,3.406-0.753c4.073-1.884,5.845-6.712,3.961-10.784l-1.407-3.042c3.379-2.011,6.68-4.331,9.847-6.933
				l4.282,4.012c1.566,1.469,3.563,2.196,5.552,2.196c2.169,0,4.33-0.862,5.93-2.569c3.067-3.273,2.901-8.415-0.374-11.482
				l-3.869-3.625c2.865-3.45,5.284-6.922,7.295-10.359l7.317,1.913c0.689,0.181,1.379,0.266,2.059,0.266
				c3.606,0,6.9-2.419,7.854-6.071C349.231,284.826,346.632,280.389,342.291,279.254z M262.239,307.411
				c7.156-3.746,14.072-8.32,20.595-13.654l12.941,12.941c-8.813,5.678-17.274,7.902-23.219,7.902c-1.236,0-2.371-0.107-3.416-0.288
				L262.239,307.411z M322.408,253.124l-4.662-4.662c3.842-8.675,6.472-17.591,7.787-26.464l8.837,8.837
				C327.386,236.079,322.912,244.231,322.408,253.124z M321.309,275.003c-0.528,1.588-1.169,3.221-1.928,4.884
				c-0.035,0.068-0.065,0.138-0.097,0.207c-2.425,5.252-6.05,10.787-11.026,16.108l-13.512-13.512
				c5.726-6.034,10.739-12.506,14.997-19.253L321.309,275.003z M248.944,317.097c-7.361,3.865-12.997,10.712-15.145,19.104
				l-16.826-16.826c9.702-0.106,19.54-1.845,29.174-5.076L248.944,317.097z M301.11,403.51l-28.999-28.999
				c0.181,0.001,0.36,0.013,0.54,0.013c0.002,0,0.001,0,0.003,0c9.629,0,19.406-1.631,28.993-4.726l23.894,23.894
				C317.697,397.665,309.528,400.948,301.11,403.51z M340.101,385.273l-22.219-22.219c7.204-3.683,14.174-8.205,20.753-13.496
				l20.793,20.793C353.338,375.873,346.873,380.848,340.101,385.273z M370.882,358.826l-20.244-20.244
				c5.766-5.98,10.838-12.396,15.152-19.098l19.928,19.928C381.327,346.214,376.375,352.705,370.882,358.826z M394.067,324.784
				l-20.159-20.159c3.901-8.575,6.625-17.402,8.054-26.196l21.802,21.802C401.246,308.687,398.004,316.897,394.067,324.784z
				 M410.007,249.038c0.103,2.321,0.161,4.651,0.161,6.99c0,8.64-0.715,17.17-2.1,25.527l-25.331-25.331
				c-0.235-2.389-0.563-4.759-1.016-7.098c-2.72-14.064-15.077-24.271-29.385-24.271c-0.315,0-0.63,0.013-0.947,0.023
				l-25.446-25.446c-0.065-0.541-0.142-1.079-0.218-1.617l16.423-16.423l66.679,66.677
				C409.195,248.435,409.592,248.755,410.007,249.038z M406.606,222.868l-52.966-52.966l16.974-16.974
				C388.674,172.952,400.952,196.947,406.606,222.868z M359.125,141.439l-16.974,16.974l-52.966-52.966
				C315.104,111.101,339.1,123.378,359.125,141.439z M256.022,101.885c2.346-0.001,4.682,0.057,7.01,0.16
				c0.294,0.441,0.634,0.86,1.023,1.25l66.606,66.606l-11.374,11.374c-5.427-6.946-13.791-11.365-23.031-11.532l-27.162-27.162
				c-0.178-1.249-0.375-2.492-0.613-3.726c-2.586-13.373-13.889-23.238-27.292-24.178l-10.693-10.692
				C238.853,102.6,247.381,101.885,256.022,101.885z M225.615,147.145c-1.434-7.42,3.436-14.624,10.854-16.06
				c0.87-0.168,1.753-0.252,2.627-0.252c6.539,0,12.189,4.672,13.433,11.109c4.857,25.117-6.094,54.578-28.581,76.882
				c-18.697,18.547-42.22,29.183-64.537,29.183c-4.311,0-8.54-0.413-12.57-1.226c-7.41-1.496-12.22-8.739-10.725-16.147
				c1.287-6.374,6.929-11,13.415-11c0.91,0,1.828,0.092,2.731,0.274c2.204,0.445,4.578,0.67,7.055,0.67
				c4.783-0.003,9.767-0.819,14.769-2.35l4.164,8.997c1.372,2.968,4.309,4.715,7.377,4.715c1.142,0,2.302-0.243,3.406-0.753
				c4.073-1.884,5.845-6.712,3.961-10.784l-4.083-8.824c3.338-1.983,6.597-4.271,9.729-6.829l5.112,5.068
				c1.585,1.571,3.651,2.355,5.719,2.355c2.09,0,4.181-0.802,5.769-2.405c3.158-3.186,3.137-8.329-0.05-11.488l-5.004-4.962
				c3.01-3.605,5.527-7.235,7.605-10.824c0.159,0.052,0.315,0.109,0.48,0.152l13.608,3.557c0.689,0.181,1.379,0.266,2.059,0.266
				c3.606,0,6.9-2.419,7.854-6.071c1.135-4.34-1.463-8.778-5.805-9.913l-11.751-3.072
				C226.438,159.557,226.651,152.497,225.615,147.145z M211.823,108.288l11.061,11.061c-7.23,4.659-12.167,12.273-13.438,20.813
				l-22.177-22.177C195.155,114.048,203.365,110.806,211.823,108.288z M172.639,126.333l35.89,35.89
				c0.074,0.074,0.155,0.138,0.231,0.208c-1.831,6.737-5.791,14.499-12.333,21.939l-43.201-43.201
				C159.347,135.678,165.839,130.725,172.639,126.333z M141.702,152.625l42.614,42.614c-9.446,6.565-18.656,9.089-25.002,9.089
				c-0.057,0-0.108-0.006-0.166-0.008l-32.369-32.369C131.205,165.18,136.181,158.715,141.702,152.625z M118.361,186.512
				l19.349,19.348c-7.628,3.308-13.695,9.714-16.467,17.782l-12.699-12.699C111.106,202.525,114.389,194.356,118.361,186.512z
				 M101.988,261.648c-0.066-1.867-0.112-3.739-0.112-5.617c0-8.982,0.764-17.844,2.258-26.517l17.386,17.385
				c0.656,0.655,1.401,1.169,2.19,1.553c2.556,4.366,6.203,8.075,10.65,10.698c0.38,0.757,0.881,1.469,1.512,2.1l51.719,51.719
				l-17.124,17.125l-68.137-68.137C102.221,261.847,102.103,261.75,101.988,261.648z M158.979,341.585l-17.547,17.547
				c-18.397-20.398-30.792-44.918-36.3-71.393L158.979,341.585z"/>
		</g>
	</g>
</g>
<g>
</g>
<g>
</g>
<g>
</g>
<g>
</g>
<g>
</g>
<g>
</g>
<g>
</g>
<g>
</g>
<g>
</g>
<g>
</g>
<g>
</g>
<g>
</g>
<g>
</g>
<g>
</g>
<g>
</g>
</svg>
